<mxfile host="app.diagrams.net" modified="2023-10-02T04:48:33.914Z" agent="Mozilla/5.0 (Windows NT 10.0; Win64; x64) AppleWebKit/537.36 (KHTML, like Gecko) Chrome/117.0.0.0 Safari/537.36 Edg/117.0.2045.43" etag="uCNuawWvs-SaVjSV3mWj" version="22.0.0" type="github">
  <diagram name="PÃ¡gina-1" id="vCc7ND2KmjQYC8xaTIO7">
    <mxGraphModel dx="1670" dy="21990" grid="1" gridSize="10" guides="1" tooltips="1" connect="1" arrows="1" fold="1" page="1" pageScale="1" pageWidth="827" pageHeight="1169" math="0" shadow="0">
      <root>
        <mxCell id="0" />
        <mxCell id="1" parent="0" />
        <mxCell id="h_derA0Dt36zPHzLAmM2-1" value="&lt;div&gt;&lt;br&gt;&lt;/div&gt;" style="text;html=1;strokeColor=none;fillColor=none;align=center;verticalAlign=middle;whiteSpace=wrap;rounded=0;" parent="1" vertex="1">
          <mxGeometry x="150" y="-20" width="60" height="30" as="geometry" />
        </mxCell>
        <mxCell id="h_derA0Dt36zPHzLAmM2-2" value="Text" style="text;html=1;strokeColor=none;fillColor=none;align=center;verticalAlign=middle;whiteSpace=wrap;rounded=0;" parent="1" vertex="1">
          <mxGeometry x="520" y="50" width="60" height="30" as="geometry" />
        </mxCell>
        <mxCell id="h_derA0Dt36zPHzLAmM2-3" value="Text" style="text;html=1;strokeColor=none;fillColor=none;align=center;verticalAlign=middle;whiteSpace=wrap;rounded=0;" parent="1" vertex="1">
          <mxGeometry x="310" y="40" width="60" height="30" as="geometry" />
        </mxCell>
        <mxCell id="h_derA0Dt36zPHzLAmM2-5" value="&lt;div&gt;&lt;br&gt;&lt;/div&gt;" style="text;html=1;strokeColor=none;fillColor=none;align=center;verticalAlign=middle;whiteSpace=wrap;rounded=0;" parent="1" vertex="1">
          <mxGeometry x="570" y="-5860" width="60" height="30" as="geometry" />
        </mxCell>
        <mxCell id="QyL1C7Eiy0LElLOUEsNj-1" value="&lt;div style=&quot;color: rgb(204, 204, 204); background-color: rgb(31, 31, 31); font-family: Consolas, &amp;quot;Courier New&amp;quot;, monospace; font-size: 14px; line-height: 19px;&quot;&gt;&lt;div&gt;&lt;br&gt;&lt;/div&gt;&lt;/div&gt;" style="text;html=1;strokeColor=none;fillColor=none;align=center;verticalAlign=middle;whiteSpace=wrap;rounded=0;" parent="1" vertex="1">
          <mxGeometry x="90" y="-15720" width="920" height="30" as="geometry" />
        </mxCell>
        <mxCell id="QyL1C7Eiy0LElLOUEsNj-2" value="&lt;div style=&quot;color: rgb(204, 204, 204); background-color: rgb(31, 31, 31); font-family: Consolas, &amp;quot;Courier New&amp;quot;, monospace; font-size: 14px; line-height: 19px;&quot;&gt;&lt;div&gt;&lt;br&gt;&lt;/div&gt;&lt;/div&gt;" style="text;html=1;strokeColor=none;fillColor=none;align=center;verticalAlign=middle;whiteSpace=wrap;rounded=0;" parent="1" vertex="1">
          <mxGeometry x="1430" y="-11440" width="60" height="30" as="geometry" />
        </mxCell>
        <mxCell id="s5FH4JY6u5uupdGevZsT-1" value="Text" style="text;html=1;strokeColor=none;fillColor=none;align=center;verticalAlign=middle;whiteSpace=wrap;rounded=0;" parent="1" vertex="1">
          <mxGeometry x="640" y="-20010" width="60" height="30" as="geometry" />
        </mxCell>
        <mxCell id="s5FH4JY6u5uupdGevZsT-2" value="&lt;div&gt;Produccion.dbo.TblGeProveedor&lt;/div&gt;&lt;div&gt;EMPACADORA..TblPbRelSucursalTpDoc&lt;/div&gt;&lt;div&gt;SPROCAMARON.dbo.tblParametrosGen&lt;/div&gt;&lt;div&gt;Produccion.dbo.tbllpparametrosgenerales&lt;/div&gt;&lt;div&gt;Produccion.dbo.TblLpCabFactura&lt;/div&gt;&lt;div&gt;Produccion.dbo.TblLpDetFactura&lt;/div&gt;&lt;div&gt;Produccion.dbo.TblLpOtrosProductos&lt;/div&gt;&lt;div&gt;SPROCAMARON.dbo.tblInformacionEmpresa&lt;/div&gt;" style="text;html=1;strokeColor=none;fillColor=none;align=center;verticalAlign=middle;whiteSpace=wrap;rounded=0;" parent="1" vertex="1">
          <mxGeometry x="290" y="-20370" width="60" height="30" as="geometry" />
        </mxCell>
      </root>
    </mxGraphModel>
  </diagram>
</mxfile>
